<svg width="80" height="80" viewBox="0 0 80 80" fill="none" xmlns="http://www.w3.org/2000/svg">
<path d="M40.0016 39.7371C40.4544 39.7372 40.8971 39.8718 41.2734 40.1237C41.6498 40.3757 41.9427 40.7337 42.1152 41.1525C42.2877 41.5713 42.3319 42.0319 42.2422 42.4758C42.1525 42.9197 41.933 43.327 41.6115 43.646C41.29 43.9649 40.881 44.1812 40.4364 44.2673C39.9918 44.3535 39.5316 44.3057 39.1142 44.1299C38.6968 43.9541 38.341 43.6583 38.092 43.28C37.843 42.9017 37.712 42.458 37.7155 42.0052C37.7155 41.7058 37.7748 41.4094 37.8899 41.1331C38.005 40.8567 38.1737 40.6058 38.3862 40.395C38.5987 40.1842 38.8509 40.0175 39.1281 39.9046C39.4054 39.7917 39.7022 39.7348 40.0016 39.7371ZM40.0016 37.0371C39.0147 37.0371 38.0499 37.33 37.2296 37.8787C36.4093 38.4274 35.7703 39.2071 35.3935 40.1192C35.0166 41.0314 34.9189 42.0348 35.1128 43.0025C35.3066 43.9702 35.7832 44.8586 36.4823 45.5552C37.1814 46.2517 38.0715 46.7251 39.0399 46.9155C40.0083 47.1058 41.0114 47.0046 41.9222 46.6245C42.8329 46.2443 43.6103 45.6024 44.156 44.7801C44.7017 43.9578 44.9911 42.9921 44.9876 42.0052C44.9876 41.3512 44.8585 40.7037 44.6077 40.0998C44.3569 39.4959 43.9893 38.9475 43.5261 38.4859C43.0628 38.0244 42.5131 37.6587 41.9082 37.4101C41.3034 37.1615 40.6555 37.0348 40.0016 37.0371Z" fill="white"/>
<path d="M40 8.7C46.5861 8.7 53.0244 10.653 58.5006 14.312C63.9767 17.9711 68.2448 23.1718 70.7652 29.2566C73.2856 35.3414 73.945 42.037 72.6602 48.4965C71.3753 54.9561 68.2038 60.8895 63.5467 65.5466C58.8896 70.2037 52.9561 73.3752 46.4966 74.6601C40.037 75.945 33.3414 75.2856 27.2567 72.7652C21.1719 70.2448 15.9711 65.9767 12.3121 60.5005C8.65303 55.0244 6.70004 48.5861 6.70004 42C6.70957 33.1712 10.221 24.7068 16.4639 18.4639C22.7068 12.221 31.1712 8.70953 40 8.7ZM40 6C32.8799 6 25.9197 8.11136 19.9995 12.0671C14.0794 16.0228 9.46512 21.6452 6.74036 28.2234C4.01561 34.8015 3.30268 42.0399 4.69174 49.0232C6.08081 56.0065 9.50948 62.4212 14.5442 67.4558C19.5789 72.4905 25.9935 75.9192 32.9768 77.3083C39.9601 78.6973 47.1985 77.9844 53.7767 75.2596C60.3548 72.5349 65.9772 67.9206 69.9329 62.0005C73.8886 56.0803 76 49.1201 76 42C76 32.4522 72.2072 23.2954 65.4559 16.5441C58.7046 9.79282 49.5478 6 40 6Z" fill="white"/>
<path d="M40.0219 23.0984C43.7599 23.0984 47.414 24.2069 50.5221 26.2837C53.6302 28.3605 56.0527 31.3122 57.4832 34.7657C58.9137 38.2192 59.2879 42.0194 58.5586 45.6857C57.8294 49.3519 56.0294 52.7195 53.3862 55.3627C50.743 58.0059 47.3753 59.8059 43.7091 60.5352C40.0428 61.2645 36.2426 60.8903 32.7891 59.4598C29.3356 58.0293 26.3839 55.6068 24.3071 52.4987C22.2304 49.3906 21.1219 45.7365 21.1219 41.9984C21.1266 36.9873 23.1194 32.1828 26.6628 28.6394C30.2062 25.096 35.0107 23.1032 40.0219 23.0984ZM40.0219 20.3984C35.7498 20.3984 31.5736 21.6652 28.0215 24.0386C24.4694 26.4121 21.7009 29.7855 20.0661 33.7324C18.4312 37.6793 18.0035 42.0224 18.8369 46.2123C19.6704 50.4023 21.7275 54.2511 24.7483 57.2719C27.7691 60.2928 31.6179 62.3499 35.8079 63.1833C39.9979 64.0168 44.341 63.5891 48.2878 61.9542C52.2347 60.3193 55.6082 57.5509 57.9816 53.9988C60.3551 50.4467 61.6218 46.2705 61.6218 41.9984C61.6218 36.2698 59.3461 30.7757 55.2954 26.7249C51.2446 22.6741 45.7505 20.3984 40.0219 20.3984Z" fill="white"/>
<path fill-rule="evenodd" clip-rule="evenodd" d="M33.874 53.2113L31.2099 51.2674L27.3939 51.8794L23.362 52.5094L23.3008 52.5937L21.4531 50.5407L21.832 50.0254L31.8939 48.4414H31.9659L36.43 51.6814L38.032 61.7433L37.923 61.8915L35.0693 60.8538L34.432 56.8113L33.874 53.2113Z" fill="white"/>
<path fill-rule="evenodd" clip-rule="evenodd" d="M26.571 27.3594L24.9586 29.6258L28.4628 36.5115L27.4548 39.6434L23.8548 41.4434L20.2548 43.2434L19.9233 43.1349L19.9233 45.9101L19.6484 45.8859L20.4347 46.1414L29.4347 41.5334L31.1448 36.2594C29.3621 32.6941 28.3562 30.7707 26.571 27.3594Z" fill="white"/>
<path fill-rule="evenodd" clip-rule="evenodd" d="M30.0391 24.1815V24.7927L37.2391 31.9926H42.819L50.019 24.7927V24.1161L47.283 23.4102V23.7306L42.585 28.4107L41.649 29.3466H38.3551L36.5551 27.5466L32.757 23.7666V23.5029L30.0391 24.1815Z" fill="white"/>
<path fill-rule="evenodd" clip-rule="evenodd" d="M54.6326 26.7715L53.1807 27.2433C51.383 30.8388 50.3752 32.7645 48.5616 36.2302L48.5547 36.2433L50.2647 41.4993L59.2647 46.1253L60.1316 45.8436L60.1316 43.1231L59.6427 43.2814L56.0427 41.4814L52.4427 39.6814L51.4167 36.5493L55.0167 29.4573L55.3027 29.3647L53.8819 27.4092L54.6326 26.7715Z" fill="white"/>
<path fill-rule="evenodd" clip-rule="evenodd" d="M50.2597 51.5217L48.7656 51.2877V51.2698L46.1017 53.2137L45.9937 53.8797L44.8597 61.0797L44.9827 61.2493L42.1876 61.9796L42.0156 61.7457C42.3306 59.7837 42.5736 58.2492 42.8166 56.7148C43.0596 55.1803 43.3026 53.6458 43.6177 51.6838L48.0816 48.4258H48.1537L58.2156 50.0278L58.5348 50.4619L56.822 52.8169L56.6136 52.5297L50.2597 51.5217Z" fill="white"/>
</svg>
