<svg width="80" height="80" viewBox="0 0 80 80" fill="none" xmlns="http://www.w3.org/2000/svg">
<path d="M47 51.5833C47 53.2851 46.3152 54.9172 45.0962 56.1206C43.8772 57.3239 42.2239 58 40.5 58C38.7761 58 37.1228 57.3239 35.9038 56.1206C34.6848 54.9172 34 53.2851 34 51.5833C34 44.25 40.5 36 40.5 36C40.5 36 47 44.25 47 51.5833Z" stroke="white" stroke-width="2.77164" stroke-miterlimit="10"/>
<path d="M57 6L67 16" stroke="white" stroke-width="2.77164" stroke-miterlimit="10"/>
<path d="M45.1875 13.75V19.25H20.8125V13.75H45.1875ZM48 11H18V22H48V11Z" fill="white"/>
<path d="M48.5756 6.775L67.2344 25.497V75.225H13.7656V6.775H48.5756ZM49.7188 4H11V78H70V24.35L49.7188 4Z" fill="white"/>
</svg>
